
<svg xmlns="http://www.w3.org/2000/svg" version="1.1" viewBox="0.00 0.00 1024.00 454.00">
<g stroke-width="2.00" fill="none" stroke-linecap="butt">
<path stroke="#853515" vector-effect="non-scaling-stroke" d="
  M 1024.00 1.00
  L 0.00 1.00"
/>
<path stroke="#853515" vector-effect="non-scaling-stroke" d="
  M 1024.00 29.49
  C 1011.38 31.70 1011.30 47.77 1024.00 50.30"
/>
<path stroke="#853515" vector-effect="non-scaling-stroke" d="
  M 1024.00 127.47
  Q 1014.40 141.68 999.92 152.68
  Q 979.99 167.81 955.49 170.81
  C 936.80 173.09 913.87 168.83 900.16 155.78
  C 882.19 138.69 880.49 112.96 891.29 91.08
  C 897.34 78.84 908.45 67.43 922.22 65.79
  C 935.71 64.18 959.32 68.17 959.00 86.77
  C 958.80 98.79 948.07 109.41 935.58 105.32
  C 927.43 102.66 925.46 93.84 925.43 86.35
  A 0.98 0.97 86.8 0 0 924.35 85.38
  C 918.08 86.09 913.78 93.51 912.08 99.14
  C 908.93 109.59 911.19 120.40 920.12 126.63
  C 929.40 133.12 941.43 134.59 952.77 133.63
  C 966.08 132.51 978.21 123.85 985.09 112.35
  Q 996.31 93.60 991.32 71.53
  C 986.27 49.22 968.48 35.72 946.70 31.57
  C 921.63 26.80 898.61 30.41 879.26 47.57
  C 867.52 57.97 858.03 70.64 849.27 84.25
  Q 838.79 100.53 827.90 116.60
  Q 817.30 132.26 804.39 144.78
  C 784.20 164.37 756.39 174.68 728.33 170.43
  C 710.81 167.78 695.02 159.67 686.24 144.22
  C 673.00 120.93 681.04 87.51 702.66 71.67
  Q 711.25 65.38 722.71 65.47
  C 733.25 65.55 745.93 67.98 751.62 77.14
  C 760.28 91.04 746.31 111.75 729.78 104.91
  C 722.25 101.80 721.07 93.66 720.60 86.55
  A 1.34 1.34 0.0 0 0 718.83 85.37
  Q 713.17 87.33 710.08 92.80
  C 701.68 107.66 705.98 124.32 722.56 130.54
  Q 732.66 134.33 744.76 133.90
  C 757.83 133.43 769.75 126.95 777.40 116.63
  Q 790.91 98.38 787.31 75.32
  C 782.03 41.44 750.62 29.07 720.22 29.65
  Q 692.97 30.17 672.64 49.22
  Q 659.53 61.50 647.78 79.30
  C 636.18 96.87 626.42 112.72 614.74 127.99
  Q 603.06 143.28 588.73 153.92
  C 564.71 171.75 528.73 177.97 500.96 163.12
  C 485.33 154.76 475.89 139.38 475.15 121.71
  C 474.26 100.69 485.30 74.68 506.83 67.12
  C 515.26 64.15 527.79 65.30 535.95 68.56
  C 545.40 72.33 551.21 80.27 549.02 90.54
  C 547.33 98.48 540.82 106.03 532.49 106.24
  C 520.18 106.55 516.10 97.45 515.83 86.45
  A 1.16 1.15 -8.7 0 0 514.35 85.37
  Q 508.99 86.95 505.99 91.74
  C 500.42 100.61 499.03 112.60 505.26 121.26
  C 513.67 132.97 532.23 135.25 545.44 133.38
  C 558.30 131.56 570.31 122.20 576.43 110.94
  C 589.81 86.32 583.50 54.91 559.21 39.99
  Q 548.88 33.65 536.97 31.50
  C 510.87 26.79 487.63 30.78 468.01 49.07
  Q 455.70 60.55 445.81 75.32
  Q 429.68 99.41 424.00 108.26
  C 409.95 130.18 392.56 151.78 368.51 163.05
  C 347.82 172.74 322.71 174.53 301.23 165.52
  C 268.84 151.93 262.29 114.64 279.48 86.52
  C 285.66 76.42 295.99 66.96 308.00 65.75
  C 321.64 64.38 345.34 68.18 344.65 87.00
  C 344.35 95.34 338.51 104.41 330.16 105.87
  C 316.54 108.24 311.24 98.23 311.17 86.50
  A 1.14 1.14 0.0 0 0 309.86 85.38
  C 303.59 86.33 299.23 93.98 297.61 99.60
  C 292.33 117.99 304.47 130.28 321.77 132.94
  C 336.52 135.21 350.37 133.67 361.74 123.24
  C 382.19 104.49 384.29 71.66 366.54 50.27
  C 353.64 34.73 332.23 29.85 313.36 29.59
  C 290.28 29.28 270.94 39.32 255.90 56.40
  Q 245.06 68.70 235.95 82.72
  Q 219.69 107.74 217.59 110.84
  C 203.70 131.40 188.20 150.93 165.86 162.03
  C 146.86 171.47 125.03 174.04 104.27 168.26
  C 84.23 162.69 69.66 148.59 66.21 127.62
  C 63.32 110.02 69.26 91.30 81.07 78.09
  C 86.51 72.00 94.22 67.07 101.97 65.98
  C 116.05 64.00 141.84 68.10 139.82 88.32
  C 138.89 97.68 131.49 106.55 121.52 106.26
  C 112.41 106.01 107.35 99.23 106.65 90.63
  Q 106.28 86.15 106.28 86.13
  A 0.96 0.95 79.5 0 0 105.08 85.30
  C 94.19 88.26 89.95 103.93 92.27 113.51
  C 96.20 129.72 114.55 134.23 129.50 133.95
  C 143.60 133.69 156.19 126.67 164.08 115.32
  Q 176.60 97.31 172.94 74.97
  C 166.98 38.73 131.08 27.04 99.11 30.10
  C 69.32 32.95 49.31 55.54 33.71 78.97
  C 23.00 95.07 13.26 110.74 0.96 127.52
  A 0.45 0.45 0.0 0 1 0.17 127.39
  L 0.00 126.87"
/>
<path stroke="#853515" vector-effect="non-scaling-stroke" d="
  M 0.00 50.57
  Q 6.17 50.19 9.05 46.29
  Q 12.16 42.07 10.95 37.52
  Q 8.93 29.92 0.00 29.33"
/>
<path stroke="#853515" vector-effect="non-scaling-stroke" d="
  M 215.98 39.93
  A 10.34 10.34 0.0 0 0 205.64 29.59
  A 10.34 10.34 0.0 0 0 195.30 39.93
  A 10.34 10.34 0.0 0 0 205.64 50.27
  A 10.34 10.34 0.0 0 0 215.98 39.93"
/>
<path stroke="#853515" vector-effect="non-scaling-stroke" d="
  M 420.77 39.92
  A 10.33 10.33 0.0 0 0 410.44 29.59
  A 10.33 10.33 0.0 0 0 400.11 39.92
  A 10.33 10.33 0.0 0 0 410.44 50.25
  A 10.33 10.33 0.0 0 0 420.77 39.92"
/>
<path stroke="#853515" vector-effect="non-scaling-stroke" d="
  M 625.61 39.94
  A 10.35 10.35 0.0 0 0 615.26 29.59
  A 10.35 10.35 0.0 0 0 604.91 39.94
  A 10.35 10.35 0.0 0 0 615.26 50.29
  A 10.35 10.35 0.0 0 0 625.61 39.94"
/>
<path stroke="#853515" vector-effect="non-scaling-stroke" d="
  M 830.38 39.93
  A 10.33 10.33 0.0 0 0 820.05 29.60
  A 10.33 10.33 0.0 0 0 809.72 39.93
  A 10.33 10.33 0.0 0 0 820.05 50.26
  A 10.33 10.33 0.0 0 0 830.38 39.93"
/>
<path stroke="#853515" vector-effect="non-scaling-stroke" d="
  M 1024.00 203.69
  L 0.00 203.68"
/>
<path stroke="#853515" vector-effect="non-scaling-stroke" d="
  M 40.50 161.13
  A 10.37 10.37 0.0 0 0 30.13 150.76
  A 10.37 10.37 0.0 0 0 19.76 161.13
  A 10.37 10.37 0.0 0 0 30.13 171.50
  A 10.37 10.37 0.0 0 0 40.50 161.13"
/>
<path stroke="#853515" vector-effect="non-scaling-stroke" d="
  M 245.33 161.13
  A 10.38 10.38 0.0 0 0 234.95 150.75
  A 10.38 10.38 0.0 0 0 224.57 161.13
  A 10.38 10.38 0.0 0 0 234.95 171.51
  A 10.38 10.38 0.0 0 0 245.33 161.13"
/>
<path stroke="#853515" vector-effect="non-scaling-stroke" d="
  M 450.12 161.13
  A 10.38 10.38 0.0 0 0 439.74 150.75
  A 10.38 10.38 0.0 0 0 429.36 161.13
  A 10.38 10.38 0.0 0 0 439.74 171.51
  A 10.38 10.38 0.0 0 0 450.12 161.13"
/>
<path stroke="#853515" vector-effect="non-scaling-stroke" d="
  M 654.92 161.13
  A 10.39 10.39 0.0 0 0 644.53 150.74
  A 10.39 10.39 0.0 0 0 634.14 161.13
  A 10.39 10.39 0.0 0 0 644.53 171.52
  A 10.39 10.39 0.0 0 0 654.92 161.13"
/>
<path stroke="#853515" vector-effect="non-scaling-stroke" d="
  M 859.72 161.12
  A 10.37 10.37 0.0 0 0 849.35 150.75
  A 10.37 10.37 0.0 0 0 838.98 161.12
  A 10.37 10.37 0.0 0 0 849.35 171.49
  A 10.37 10.37 0.0 0 0 859.72 161.12"
/>
<path stroke="#853515" vector-effect="non-scaling-stroke" d="
  M 1024.00 221.31
  L 0.00 221.30"
/>
<path stroke="#853515" vector-effect="non-scaling-stroke" d="
  M 1024.00 242.58
  L 0.00 242.58"
/>
<path stroke="#853515" vector-effect="non-scaling-stroke" d="
  M 1024.00 263.81
  L 1003.01 263.83
  A 0.38 0.37 -0.0 0 0 1002.63 264.20
  L 1002.63 391.43
  A 0.41 0.41 0.0 0 1 1002.22 391.84
  L 896.67 391.84
  A 0.75 0.75 0.0 0 1 895.92 391.09
  L 895.92 328.23
  A 0.44 0.44 0.0 0 1 896.36 327.79
  L 937.91 327.79
  A 0.68 0.68 0.0 0 0 938.59 327.11
  L 938.59 307.13
  A 0.70 0.70 0.0 0 0 937.89 306.43
  L 875.08 306.43
  A 0.42 0.41 -0.0 0 0 874.66 306.84
  L 874.66 412.71
  A 0.39 0.38 -0.0 0 0 875.05 413.09
  L 1024.00 413.08"
/>
<path stroke="#853515" vector-effect="non-scaling-stroke" d="
  M 1024.00 434.35
  L 0.00 434.35"
/>
<path stroke="#853515" vector-effect="non-scaling-stroke" d="
  M 0.00 285.19
  L 106.32 285.16
  A 0.31 0.31 0.0 0 1 106.63 285.47
  L 106.63 348.52
  A 0.60 0.60 0.0 0 1 106.03 349.12
  L 64.40 349.12
  A 0.32 0.32 0.0 0 0 64.08 349.44
  L 64.08 369.99
  A 0.50 0.50 0.0 0 0 64.58 370.49
  L 127.35 370.49
  A 0.64 0.64 0.0 0 0 127.99 369.85
  L 127.99 264.43
  A 0.56 0.56 0.0 0 0 127.43 263.87
  L 0.00 263.87"
/>
<path stroke="#853515" vector-effect="non-scaling-stroke" d="
  M 149.32 338.45
  Q 149.31 390.81 149.31 391.43
  A 0.36 0.36 0.0 0 1 148.95 391.79
  L 43.23 391.79
  A 0.55 0.55 0.0 0 1 42.68 391.24
  L 42.68 328.32
  A 0.49 0.49 0.0 0 1 43.17 327.83
  L 84.75 327.82
  A 0.60 0.59 -0.0 0 0 85.35 327.24
  L 85.35 307.10
  A 0.66 0.66 0.0 0 0 84.69 306.45
  L 21.96 306.45
  A 0.60 0.60 0.0 0 0 21.36 307.05
  L 21.36 412.48
  A 0.55 0.55 0.0 0 0 21.91 413.03
  L 170.04 413.03
  A 0.55 0.54 -89.8 0 0 170.59 412.49
  Q 170.62 402.65 170.63 338.50
  Q 170.63 286.14 170.64 285.51
  A 0.36 0.36 0.0 0 1 170.99 285.15
  L 276.71 285.15
  A 0.55 0.55 0.0 0 1 277.26 285.70
  L 277.26 348.63
  A 0.49 0.49 0.0 0 1 276.77 349.12
  L 235.19 349.12
  A 0.60 0.59 -0.0 0 0 234.59 349.71
  L 234.59 369.84
  A 0.66 0.66 0.0 0 0 235.25 370.50
  L 297.98 370.50
  A 0.60 0.60 0.0 0 0 298.58 369.90
  L 298.58 264.46
  A 0.55 0.55 0.0 0 0 298.03 263.91
  L 149.90 263.91
  A 0.55 0.54 -89.8 0 0 149.36 264.46
  Q 149.32 274.29 149.32 338.45"
/>
<path stroke="#853515" vector-effect="non-scaling-stroke" d="
  M 320.04 338.45
  Q 320.03 390.83 320.03 391.46
  A 0.36 0.36 0.0 0 1 319.67 391.82
  L 213.91 391.82
  A 0.55 0.55 0.0 0 1 213.36 391.27
  L 213.36 328.31
  A 0.49 0.49 0.0 0 1 213.85 327.82
  L 255.45 327.82
  A 0.60 0.59 -0.0 0 0 256.05 327.23
  L 256.05 307.10
  A 0.66 0.66 0.0 0 0 255.39 306.44
  L 192.63 306.44
  A 0.60 0.60 0.0 0 0 192.03 307.04
  L 192.03 412.52
  A 0.55 0.55 0.0 0 0 192.58 413.07
  L 340.77 413.06
  A 0.55 0.54 -89.8 0 0 341.31 412.52
  Q 341.35 402.68 341.36 338.50
  Q 341.36 286.12 341.36 285.50
  A 0.36 0.36 0.0 0 1 341.72 285.14
  L 447.48 285.13
  A 0.55 0.55 0.0 0 1 448.03 285.68
  L 448.03 348.64
  A 0.49 0.49 0.0 0 1 447.54 349.13
  L 405.94 349.13
  A 0.60 0.59 -0.0 0 0 405.34 349.72
  L 405.34 369.86
  A 0.66 0.66 0.0 0 0 406.00 370.52
  L 468.76 370.52
  A 0.60 0.60 0.0 0 0 469.36 369.92
  L 469.36 264.44
  A 0.55 0.55 0.0 0 0 468.81 263.89
  L 320.62 263.89
  A 0.55 0.54 -89.8 0 0 320.08 264.43
  Q 320.04 274.27 320.04 338.45"
/>
<path stroke="#853515" vector-effect="non-scaling-stroke" d="
  M 490.68 338.45
  Q 490.67 390.83 490.67 391.46
  A 0.36 0.36 0.0 0 1 490.31 391.82
  L 384.54 391.82
  A 0.55 0.55 0.0 0 1 383.99 391.27
  L 383.99 328.31
  A 0.49 0.49 0.0 0 1 384.48 327.82
  L 426.08 327.82
  A 0.60 0.59 0.0 0 0 426.68 327.23
  L 426.68 307.09
  A 0.66 0.66 0.0 0 0 426.02 306.43
  L 363.26 306.43
  A 0.60 0.60 0.0 0 0 362.66 307.03
  L 362.66 412.52
  A 0.55 0.55 0.0 0 0 363.21 413.07
  L 511.41 413.07
  A 0.55 0.54 -89.8 0 0 511.95 412.53
  Q 511.99 402.69 512.00 338.50
  Q 512.00 286.12 512.00 285.49
  A 0.36 0.36 0.0 0 1 512.36 285.13
  L 618.13 285.13
  A 0.55 0.55 0.0 0 1 618.68 285.68
  L 618.68 348.64
  A 0.49 0.49 0.0 0 1 618.19 349.13
  L 576.59 349.13
  A 0.60 0.59 -0.0 0 0 575.99 349.72
  L 575.99 369.86
  A 0.66 0.66 0.0 0 0 576.65 370.52
  L 639.41 370.52
  A 0.60 0.60 0.0 0 0 640.01 369.92
  L 640.01 264.43
  A 0.55 0.55 0.0 0 0 639.46 263.88
  L 491.26 263.88
  A 0.55 0.54 -89.8 0 0 490.72 264.42
  Q 490.68 274.26 490.68 338.45"
/>
<path stroke="#853515" vector-effect="non-scaling-stroke" d="
  M 661.30 338.44
  Q 661.29 390.81 661.29 391.44
  A 0.36 0.36 0.0 0 1 660.93 391.80
  L 555.20 391.79
  A 0.55 0.55 0.0 0 1 554.65 391.24
  L 554.65 328.30
  A 0.49 0.49 0.0 0 1 555.14 327.81
  L 596.72 327.82
  A 0.60 0.59 0.0 0 0 597.32 327.23
  L 597.32 307.09
  A 0.66 0.66 0.0 0 0 596.66 306.43
  L 533.93 306.43
  A 0.60 0.60 0.0 0 0 533.33 307.03
  L 533.32 412.48
  A 0.55 0.55 0.0 0 0 533.87 413.03
  L 682.02 413.04
  A 0.55 0.54 -89.8 0 0 682.56 412.50
  Q 682.60 402.66 682.61 338.50
  Q 682.62 286.13 682.62 285.51
  A 0.36 0.36 0.0 0 1 682.98 285.15
  L 788.71 285.15
  A 0.55 0.55 0.0 0 1 789.26 285.70
  L 789.25 348.64
  A 0.49 0.49 0.0 0 1 788.76 349.13
  L 747.18 349.12
  A 0.60 0.59 0.0 0 0 746.58 349.71
  L 746.58 369.85
  A 0.66 0.66 0.0 0 0 747.24 370.51
  L 809.98 370.51
  A 0.60 0.60 0.0 0 0 810.58 369.91
  L 810.58 264.46
  A 0.55 0.55 0.0 0 0 810.03 263.91
  L 661.88 263.90
  A 0.55 0.54 -89.8 0 0 661.34 264.45
  Q 661.30 274.28 661.30 338.44"
/>
<path stroke="#853515" vector-effect="non-scaling-stroke" d="
  M 832.01 338.45
  Q 832.00 390.83 832.00 391.46
  A 0.36 0.36 0.0 0 1 831.64 391.82
  L 725.88 391.82
  A 0.55 0.55 0.0 0 1 725.33 391.27
  L 725.33 328.31
  A 0.49 0.49 0.0 0 1 725.82 327.82
  L 767.42 327.82
  A 0.60 0.59 0.0 0 0 768.02 327.23
  L 768.02 307.09
  A 0.66 0.66 0.0 0 0 767.36 306.43
  L 704.60 306.43
  A 0.60 0.60 0.0 0 0 704.00 307.03
  L 704.00 412.51
  A 0.55 0.55 0.0 0 0 704.55 413.06
  L 852.74 413.07
  A 0.55 0.54 -89.8 0 0 853.28 412.52
  Q 853.32 402.68 853.33 338.50
  Q 853.33 286.12 853.34 285.50
  A 0.36 0.36 0.0 0 1 853.69 285.13
  L 959.46 285.14
  A 0.55 0.55 0.0 0 1 960.01 285.69
  L 960.01 348.64
  A 0.49 0.49 0.0 0 1 959.52 349.13
  L 917.92 349.13
  A 0.60 0.59 0.0 0 0 917.32 349.72
  L 917.32 369.86
  A 0.66 0.66 0.0 0 0 917.98 370.52
  L 980.73 370.52
  A 0.60 0.60 0.0 0 0 981.33 369.92
  L 981.34 264.44
  A 0.55 0.55 0.0 0 0 980.79 263.89
  L 832.60 263.89
  A 0.55 0.54 -89.8 0 0 832.05 264.43
  Q 832.02 274.27 832.01 338.45"
/>
</g>
<path fill="#cc5d28" d="
  M 1024.00 0.00
  L 1024.00 1.00
  L 0.00 1.00
  L 0.00 0.00
  L 1024.00 0.00
  Z"
/>
<path fill="#3e0c01" d="
  M 1024.00 1.00
  L 1024.00 29.49
  C 1011.38 31.70 1011.30 47.77 1024.00 50.30
  L 1024.00 127.47
  Q 1014.40 141.68 999.92 152.68
  Q 979.99 167.81 955.49 170.81
  C 936.80 173.09 913.87 168.83 900.16 155.78
  C 882.19 138.69 880.49 112.96 891.29 91.08
  C 897.34 78.84 908.45 67.43 922.22 65.79
  C 935.71 64.18 959.32 68.17 959.00 86.77
  C 958.80 98.79 948.07 109.41 935.58 105.32
  C 927.43 102.66 925.46 93.84 925.43 86.35
  A 0.98 0.97 86.8 0 0 924.35 85.38
  C 918.08 86.09 913.78 93.51 912.08 99.14
  C 908.93 109.59 911.19 120.40 920.12 126.63
  C 929.40 133.12 941.43 134.59 952.77 133.63
  C 966.08 132.51 978.21 123.85 985.09 112.35
  Q 996.31 93.60 991.32 71.53
  C 986.27 49.22 968.48 35.72 946.70 31.57
  C 921.63 26.80 898.61 30.41 879.26 47.57
  C 867.52 57.97 858.03 70.64 849.27 84.25
  Q 838.79 100.53 827.90 116.60
  Q 817.30 132.26 804.39 144.78
  C 784.20 164.37 756.39 174.68 728.33 170.43
  C 710.81 167.78 695.02 159.67 686.24 144.22
  C 673.00 120.93 681.04 87.51 702.66 71.67
  Q 711.25 65.38 722.71 65.47
  C 733.25 65.55 745.93 67.98 751.62 77.14
  C 760.28 91.04 746.31 111.75 729.78 104.91
  C 722.25 101.80 721.07 93.66 720.60 86.55
  A 1.34 1.34 0.0 0 0 718.83 85.37
  Q 713.17 87.33 710.08 92.80
  C 701.68 107.66 705.98 124.32 722.56 130.54
  Q 732.66 134.33 744.76 133.90
  C 757.83 133.43 769.75 126.95 777.40 116.63
  Q 790.91 98.38 787.31 75.32
  C 782.03 41.44 750.62 29.07 720.22 29.65
  Q 692.97 30.17 672.64 49.22
  Q 659.53 61.50 647.78 79.30
  C 636.18 96.87 626.42 112.72 614.74 127.99
  Q 603.06 143.28 588.73 153.92
  C 564.71 171.75 528.73 177.97 500.96 163.12
  C 485.33 154.76 475.89 139.38 475.15 121.71
  C 474.26 100.69 485.30 74.68 506.83 67.12
  C 515.26 64.15 527.79 65.30 535.95 68.56
  C 545.40 72.33 551.21 80.27 549.02 90.54
  C 547.33 98.48 540.82 106.03 532.49 106.24
  C 520.18 106.55 516.10 97.45 515.83 86.45
  A 1.16 1.15 -8.7 0 0 514.35 85.37
  Q 508.99 86.95 505.99 91.74
  C 500.42 100.61 499.03 112.60 505.26 121.26
  C 513.67 132.97 532.23 135.25 545.44 133.38
  C 558.30 131.56 570.31 122.20 576.43 110.94
  C 589.81 86.32 583.50 54.91 559.21 39.99
  Q 548.88 33.65 536.97 31.50
  C 510.87 26.79 487.63 30.78 468.01 49.07
  Q 455.70 60.55 445.81 75.32
  Q 429.68 99.41 424.00 108.26
  C 409.95 130.18 392.56 151.78 368.51 163.05
  C 347.82 172.74 322.71 174.53 301.23 165.52
  C 268.84 151.93 262.29 114.64 279.48 86.52
  C 285.66 76.42 295.99 66.96 308.00 65.75
  C 321.64 64.38 345.34 68.18 344.65 87.00
  C 344.35 95.34 338.51 104.41 330.16 105.87
  C 316.54 108.24 311.24 98.23 311.17 86.50
  A 1.14 1.14 0.0 0 0 309.86 85.38
  C 303.59 86.33 299.23 93.98 297.61 99.60
  C 292.33 117.99 304.47 130.28 321.77 132.94
  C 336.52 135.21 350.37 133.67 361.74 123.24
  C 382.19 104.49 384.29 71.66 366.54 50.27
  C 353.64 34.73 332.23 29.85 313.36 29.59
  C 290.28 29.28 270.94 39.32 255.90 56.40
  Q 245.06 68.70 235.95 82.72
  Q 219.69 107.74 217.59 110.84
  C 203.70 131.40 188.20 150.93 165.86 162.03
  C 146.86 171.47 125.03 174.04 104.27 168.26
  C 84.23 162.69 69.66 148.59 66.21 127.62
  C 63.32 110.02 69.26 91.30 81.07 78.09
  C 86.51 72.00 94.22 67.07 101.97 65.98
  C 116.05 64.00 141.84 68.10 139.82 88.32
  C 138.89 97.68 131.49 106.55 121.52 106.26
  C 112.41 106.01 107.35 99.23 106.65 90.63
  Q 106.28 86.15 106.28 86.13
  A 0.96 0.95 79.5 0 0 105.08 85.30
  C 94.19 88.26 89.95 103.93 92.27 113.51
  C 96.20 129.72 114.55 134.23 129.50 133.95
  C 143.60 133.69 156.19 126.67 164.08 115.32
  Q 176.60 97.31 172.94 74.97
  C 166.98 38.73 131.08 27.04 99.11 30.10
  C 69.32 32.95 49.31 55.54 33.71 78.97
  C 23.00 95.07 13.26 110.74 0.96 127.52
  A 0.45 0.45 0.0 0 1 0.17 127.39
  L 0.00 126.87
  L 0.00 50.57
  Q 6.17 50.19 9.05 46.29
  Q 12.16 42.07 10.95 37.52
  Q 8.93 29.92 0.00 29.33
  L 0.00 1.00
  L 1024.00 1.00
  Z
  M 215.98 39.93
  A 10.34 10.34 0.0 0 0 205.64 29.59
  A 10.34 10.34 0.0 0 0 195.30 39.93
  A 10.34 10.34 0.0 0 0 205.64 50.27
  A 10.34 10.34 0.0 0 0 215.98 39.93
  Z
  M 420.77 39.92
  A 10.33 10.33 0.0 0 0 410.44 29.59
  A 10.33 10.33 0.0 0 0 400.11 39.92
  A 10.33 10.33 0.0 0 0 410.44 50.25
  A 10.33 10.33 0.0 0 0 420.77 39.92
  Z
  M 625.61 39.94
  A 10.35 10.35 0.0 0 0 615.26 29.59
  A 10.35 10.35 0.0 0 0 604.91 39.94
  A 10.35 10.35 0.0 0 0 615.26 50.29
  A 10.35 10.35 0.0 0 0 625.61 39.94
  Z
  M 830.38 39.93
  A 10.33 10.33 0.0 0 0 820.05 29.60
  A 10.33 10.33 0.0 0 0 809.72 39.93
  A 10.33 10.33 0.0 0 0 820.05 50.26
  A 10.33 10.33 0.0 0 0 830.38 39.93
  Z"
/>
<path fill="#cc5d28" d="
  M 0.00 50.57
  L 0.00 29.33
  Q 8.93 29.92 10.95 37.52
  Q 12.16 42.07 9.05 46.29
  Q 6.17 50.19 0.00 50.57
  Z"
/>
<circle fill="#cc5d28" cx="205.64" cy="39.93" r="10.34"/>
<path fill="#cc5d28" d="
  M 1024.00 127.47
  L 1024.00 203.69
  L 0.00 203.68
  L 0.00 126.87
  L 0.17 127.39
  A 0.45 0.45 0.0 0 0 0.96 127.52
  C 13.26 110.74 23.00 95.07 33.71 78.97
  C 49.31 55.54 69.32 32.95 99.11 30.10
  C 131.08 27.04 166.98 38.73 172.94 74.97
  Q 176.60 97.31 164.08 115.32
  C 156.19 126.67 143.60 133.69 129.50 133.95
  C 114.55 134.23 96.20 129.72 92.27 113.51
  C 89.95 103.93 94.19 88.26 105.08 85.30
  A 0.96 0.95 79.5 0 1 106.28 86.13
  Q 106.28 86.15 106.65 90.63
  C 107.35 99.23 112.41 106.01 121.52 106.26
  C 131.49 106.55 138.89 97.68 139.82 88.32
  C 141.84 68.10 116.05 64.00 101.97 65.98
  C 94.22 67.07 86.51 72.00 81.07 78.09
  C 69.26 91.30 63.32 110.02 66.21 127.62
  C 69.66 148.59 84.23 162.69 104.27 168.26
  C 125.03 174.04 146.86 171.47 165.86 162.03
  C 188.20 150.93 203.70 131.40 217.59 110.84
  Q 219.69 107.74 235.95 82.72
  Q 245.06 68.70 255.90 56.40
  C 270.94 39.32 290.28 29.28 313.36 29.59
  C 332.23 29.85 353.64 34.73 366.54 50.27
  C 384.29 71.66 382.19 104.49 361.74 123.24
  C 350.37 133.67 336.52 135.21 321.77 132.94
  C 304.47 130.28 292.33 117.99 297.61 99.60
  C 299.23 93.98 303.59 86.33 309.86 85.38
  A 1.14 1.14 0.0 0 1 311.17 86.50
  C 311.24 98.23 316.54 108.24 330.16 105.87
  C 338.51 104.41 344.35 95.34 344.65 87.00
  C 345.34 68.18 321.64 64.38 308.00 65.75
  C 295.99 66.96 285.66 76.42 279.48 86.52
  C 262.29 114.64 268.84 151.93 301.23 165.52
  C 322.71 174.53 347.82 172.74 368.51 163.05
  C 392.56 151.78 409.95 130.18 424.00 108.26
  Q 429.68 99.41 445.81 75.32
  Q 455.70 60.55 468.01 49.07
  C 487.63 30.78 510.87 26.79 536.97 31.50
  Q 548.88 33.65 559.21 39.99
  C 583.50 54.91 589.81 86.32 576.43 110.94
  C 570.31 122.20 558.30 131.56 545.44 133.38
  C 532.23 135.25 513.67 132.97 505.26 121.26
  C 499.03 112.60 500.42 100.61 505.99 91.74
  Q 508.99 86.95 514.35 85.37
  A 1.16 1.15 -8.7 0 1 515.83 86.45
  C 516.10 97.45 520.18 106.55 532.49 106.24
  C 540.82 106.03 547.33 98.48 549.02 90.54
  C 551.21 80.27 545.40 72.33 535.95 68.56
  C 527.79 65.30 515.26 64.15 506.83 67.12
  C 485.30 74.68 474.26 100.69 475.15 121.71
  C 475.89 139.38 485.33 154.76 500.96 163.12
  C 528.73 177.97 564.71 171.75 588.73 153.92
  Q 603.06 143.28 614.74 127.99
  C 626.42 112.72 636.18 96.87 647.78 79.30
  Q 659.53 61.50 672.64 49.22
  Q 692.97 30.17 720.22 29.65
  C 750.62 29.07 782.03 41.44 787.31 75.32
  Q 790.91 98.38 777.40 116.63
  C 769.75 126.95 757.83 133.43 744.76 133.90
  Q 732.66 134.33 722.56 130.54
  C 705.98 124.32 701.68 107.66 710.08 92.80
  Q 713.17 87.33 718.83 85.37
  A 1.34 1.34 0.0 0 1 720.60 86.55
  C 721.07 93.66 722.25 101.80 729.78 104.91
  C 746.31 111.75 760.28 91.04 751.62 77.14
  C 745.93 67.98 733.25 65.55 722.71 65.47
  Q 711.25 65.38 702.66 71.67
  C 681.04 87.51 673.00 120.93 686.24 144.22
  C 695.02 159.67 710.81 167.78 728.33 170.43
  C 756.39 174.68 784.20 164.37 804.39 144.78
  Q 817.30 132.26 827.90 116.60
  Q 838.79 100.53 849.27 84.25
  C 858.03 70.64 867.52 57.97 879.26 47.57
  C 898.61 30.41 921.63 26.80 946.70 31.57
  C 968.48 35.72 986.27 49.22 991.32 71.53
  Q 996.31 93.60 985.09 112.35
  C 978.21 123.85 966.08 132.51 952.77 133.63
  C 941.43 134.59 929.40 133.12 920.12 126.63
  C 911.19 120.40 908.93 109.59 912.08 99.14
  C 913.78 93.51 918.08 86.09 924.35 85.38
  A 0.98 0.97 86.8 0 1 925.43 86.35
  C 925.46 93.84 927.43 102.66 935.58 105.32
  C 948.07 109.41 958.80 98.79 959.00 86.77
  C 959.32 68.17 935.71 64.18 922.22 65.79
  C 908.45 67.43 897.34 78.84 891.29 91.08
  C 880.49 112.96 882.19 138.69 900.16 155.78
  C 913.87 168.83 936.80 173.09 955.49 170.81
  Q 979.99 167.81 999.92 152.68
  Q 1014.40 141.68 1024.00 127.47
  Z
  M 40.50 161.13
  A 10.37 10.37 0.0 0 0 30.13 150.76
  A 10.37 10.37 0.0 0 0 19.76 161.13
  A 10.37 10.37 0.0 0 0 30.13 171.50
  A 10.37 10.37 0.0 0 0 40.50 161.13
  Z
  M 245.33 161.13
  A 10.38 10.38 0.0 0 0 234.95 150.75
  A 10.38 10.38 0.0 0 0 224.57 161.13
  A 10.38 10.38 0.0 0 0 234.95 171.51
  A 10.38 10.38 0.0 0 0 245.33 161.13
  Z
  M 450.12 161.13
  A 10.38 10.38 0.0 0 0 439.74 150.75
  A 10.38 10.38 0.0 0 0 429.36 161.13
  A 10.38 10.38 0.0 0 0 439.74 171.51
  A 10.38 10.38 0.0 0 0 450.12 161.13
  Z
  M 654.92 161.13
  A 10.39 10.39 0.0 0 0 644.53 150.74
  A 10.39 10.39 0.0 0 0 634.14 161.13
  A 10.39 10.39 0.0 0 0 644.53 171.52
  A 10.39 10.39 0.0 0 0 654.92 161.13
  Z
  M 859.72 161.12
  A 10.37 10.37 0.0 0 0 849.35 150.75
  A 10.37 10.37 0.0 0 0 838.98 161.12
  A 10.37 10.37 0.0 0 0 849.35 171.49
  A 10.37 10.37 0.0 0 0 859.72 161.12
  Z"
/>
<circle fill="#cc5d28" cx="410.44" cy="39.92" r="10.33"/>
<circle fill="#cc5d28" cx="615.26" cy="39.94" r="10.35"/>
<circle fill="#cc5d28" cx="820.05" cy="39.93" r="10.33"/>
<path fill="#cc5d28" d="
  M 1024.00 29.49
  L 1024.00 50.30
  C 1011.30 47.77 1011.38 31.70 1024.00 29.49
  Z"
/>
<circle fill="#3e0c01" cx="30.13" cy="161.13" r="10.37"/>
<circle fill="#3e0c01" cx="234.95" cy="161.13" r="10.38"/>
<circle fill="#3e0c01" cx="439.74" cy="161.13" r="10.38"/>
<circle fill="#3e0c01" cx="644.53" cy="161.13" r="10.39"/>
<circle fill="#3e0c01" cx="849.35" cy="161.12" r="10.37"/>
<path fill="#3e0c01" d="
  M 1024.00 203.69
  L 1024.00 221.31
  L 0.00 221.30
  L 0.00 203.68
  L 1024.00 203.69
  Z"
/>
<path fill="#cc5d28" d="
  M 1024.00 221.31
  L 1024.00 242.58
  L 0.00 242.58
  L 0.00 221.30
  L 1024.00 221.31
  Z"
/>
<path fill="#3e0c01" d="
  M 1024.00 242.58
  L 1024.00 263.81
  L 1003.01 263.83
  A 0.38 0.37 -0.0 0 0 1002.63 264.20
  L 1002.63 391.43
  A 0.41 0.41 0.0 0 1 1002.22 391.84
  L 896.67 391.84
  A 0.75 0.75 0.0 0 1 895.92 391.09
  L 895.92 328.23
  A 0.44 0.44 0.0 0 1 896.36 327.79
  L 937.91 327.79
  A 0.68 0.68 0.0 0 0 938.59 327.11
  L 938.59 307.13
  A 0.70 0.70 0.0 0 0 937.89 306.43
  L 875.08 306.43
  A 0.42 0.41 -0.0 0 0 874.66 306.84
  L 874.66 412.71
  A 0.39 0.38 -0.0 0 0 875.05 413.09
  L 1024.00 413.08
  L 1024.00 434.35
  L 0.00 434.35
  L 0.00 285.19
  L 106.32 285.16
  A 0.31 0.31 0.0 0 1 106.63 285.47
  L 106.63 348.52
  A 0.60 0.60 0.0 0 1 106.03 349.12
  L 64.40 349.12
  A 0.32 0.32 0.0 0 0 64.08 349.44
  L 64.08 369.99
  A 0.50 0.50 0.0 0 0 64.58 370.49
  L 127.35 370.49
  A 0.64 0.64 0.0 0 0 127.99 369.85
  L 127.99 264.43
  A 0.56 0.56 0.0 0 0 127.43 263.87
  L 0.00 263.87
  L 0.00 242.58
  L 1024.00 242.58
  Z
  M 149.32 338.45
  Q 149.31 390.81 149.31 391.43
  A 0.36 0.36 0.0 0 1 148.95 391.79
  L 43.23 391.79
  A 0.55 0.55 0.0 0 1 42.68 391.24
  L 42.68 328.32
  A 0.49 0.49 0.0 0 1 43.17 327.83
  L 84.75 327.82
  A 0.60 0.59 -0.0 0 0 85.35 327.24
  L 85.35 307.10
  A 0.66 0.66 0.0 0 0 84.69 306.45
  L 21.96 306.45
  A 0.60 0.60 0.0 0 0 21.36 307.05
  L 21.36 412.48
  A 0.55 0.55 0.0 0 0 21.91 413.03
  L 170.04 413.03
  A 0.55 0.54 -89.8 0 0 170.59 412.49
  Q 170.62 402.65 170.63 338.50
  Q 170.63 286.14 170.64 285.51
  A 0.36 0.36 0.0 0 1 170.99 285.15
  L 276.71 285.15
  A 0.55 0.55 0.0 0 1 277.26 285.70
  L 277.26 348.63
  A 0.49 0.49 0.0 0 1 276.77 349.12
  L 235.19 349.12
  A 0.60 0.59 -0.0 0 0 234.59 349.71
  L 234.59 369.84
  A 0.66 0.66 0.0 0 0 235.25 370.50
  L 297.98 370.50
  A 0.60 0.60 0.0 0 0 298.58 369.90
  L 298.58 264.46
  A 0.55 0.55 0.0 0 0 298.03 263.91
  L 149.90 263.91
  A 0.55 0.54 -89.8 0 0 149.36 264.46
  Q 149.32 274.29 149.32 338.45
  Z
  M 320.04 338.45
  Q 320.03 390.83 320.03 391.46
  A 0.36 0.36 0.0 0 1 319.67 391.82
  L 213.91 391.82
  A 0.55 0.55 0.0 0 1 213.36 391.27
  L 213.36 328.31
  A 0.49 0.49 0.0 0 1 213.85 327.82
  L 255.45 327.82
  A 0.60 0.59 -0.0 0 0 256.05 327.23
  L 256.05 307.10
  A 0.66 0.66 0.0 0 0 255.39 306.44
  L 192.63 306.44
  A 0.60 0.60 0.0 0 0 192.03 307.04
  L 192.03 412.52
  A 0.55 0.55 0.0 0 0 192.58 413.07
  L 340.77 413.06
  A 0.55 0.54 -89.8 0 0 341.31 412.52
  Q 341.35 402.68 341.36 338.50
  Q 341.36 286.12 341.36 285.50
  A 0.36 0.36 0.0 0 1 341.72 285.14
  L 447.48 285.13
  A 0.55 0.55 0.0 0 1 448.03 285.68
  L 448.03 348.64
  A 0.49 0.49 0.0 0 1 447.54 349.13
  L 405.94 349.13
  A 0.60 0.59 -0.0 0 0 405.34 349.72
  L 405.34 369.86
  A 0.66 0.66 0.0 0 0 406.00 370.52
  L 468.76 370.52
  A 0.60 0.60 0.0 0 0 469.36 369.92
  L 469.36 264.44
  A 0.55 0.55 0.0 0 0 468.81 263.89
  L 320.62 263.89
  A 0.55 0.54 -89.8 0 0 320.08 264.43
  Q 320.04 274.27 320.04 338.45
  Z
  M 490.68 338.45
  Q 490.67 390.83 490.67 391.46
  A 0.36 0.36 0.0 0 1 490.31 391.82
  L 384.54 391.82
  A 0.55 0.55 0.0 0 1 383.99 391.27
  L 383.99 328.31
  A 0.49 0.49 0.0 0 1 384.48 327.82
  L 426.08 327.82
  A 0.60 0.59 0.0 0 0 426.68 327.23
  L 426.68 307.09
  A 0.66 0.66 0.0 0 0 426.02 306.43
  L 363.26 306.43
  A 0.60 0.60 0.0 0 0 362.66 307.03
  L 362.66 412.52
  A 0.55 0.55 0.0 0 0 363.21 413.07
  L 511.41 413.07
  A 0.55 0.54 -89.8 0 0 511.95 412.53
  Q 511.99 402.69 512.00 338.50
  Q 512.00 286.12 512.00 285.49
  A 0.36 0.36 0.0 0 1 512.36 285.13
  L 618.13 285.13
  A 0.55 0.55 0.0 0 1 618.68 285.68
  L 618.68 348.64
  A 0.49 0.49 0.0 0 1 618.19 349.13
  L 576.59 349.13
  A 0.60 0.59 -0.0 0 0 575.99 349.72
  L 575.99 369.86
  A 0.66 0.66 0.0 0 0 576.65 370.52
  L 639.41 370.52
  A 0.60 0.60 0.0 0 0 640.01 369.92
  L 640.01 264.43
  A 0.55 0.55 0.0 0 0 639.46 263.88
  L 491.26 263.88
  A 0.55 0.54 -89.8 0 0 490.72 264.42
  Q 490.68 274.26 490.68 338.45
  Z
  M 661.30 338.44
  Q 661.29 390.81 661.29 391.44
  A 0.36 0.36 0.0 0 1 660.93 391.80
  L 555.20 391.79
  A 0.55 0.55 0.0 0 1 554.65 391.24
  L 554.65 328.30
  A 0.49 0.49 0.0 0 1 555.14 327.81
  L 596.72 327.82
  A 0.60 0.59 0.0 0 0 597.32 327.23
  L 597.32 307.09
  A 0.66 0.66 0.0 0 0 596.66 306.43
  L 533.93 306.43
  A 0.60 0.60 0.0 0 0 533.33 307.03
  L 533.32 412.48
  A 0.55 0.55 0.0 0 0 533.87 413.03
  L 682.02 413.04
  A 0.55 0.54 -89.8 0 0 682.56 412.50
  Q 682.60 402.66 682.61 338.50
  Q 682.62 286.13 682.62 285.51
  A 0.36 0.36 0.0 0 1 682.98 285.15
  L 788.71 285.15
  A 0.55 0.55 0.0 0 1 789.26 285.70
  L 789.25 348.64
  A 0.49 0.49 0.0 0 1 788.76 349.13
  L 747.18 349.12
  A 0.60 0.59 0.0 0 0 746.58 349.71
  L 746.58 369.85
  A 0.66 0.66 0.0 0 0 747.24 370.51
  L 809.98 370.51
  A 0.60 0.60 0.0 0 0 810.58 369.91
  L 810.58 264.46
  A 0.55 0.55 0.0 0 0 810.03 263.91
  L 661.88 263.90
  A 0.55 0.54 -89.8 0 0 661.34 264.45
  Q 661.30 274.28 661.30 338.44
  Z
  M 832.01 338.45
  Q 832.00 390.83 832.00 391.46
  A 0.36 0.36 0.0 0 1 831.64 391.82
  L 725.88 391.82
  A 0.55 0.55 0.0 0 1 725.33 391.27
  L 725.33 328.31
  A 0.49 0.49 0.0 0 1 725.82 327.82
  L 767.42 327.82
  A 0.60 0.59 0.0 0 0 768.02 327.23
  L 768.02 307.09
  A 0.66 0.66 0.0 0 0 767.36 306.43
  L 704.60 306.43
  A 0.60 0.60 0.0 0 0 704.00 307.03
  L 704.00 412.51
  A 0.55 0.55 0.0 0 0 704.55 413.06
  L 852.74 413.07
  A 0.55 0.54 -89.8 0 0 853.28 412.52
  Q 853.32 402.68 853.33 338.50
  Q 853.33 286.12 853.34 285.50
  A 0.36 0.36 0.0 0 1 853.69 285.13
  L 959.46 285.14
  A 0.55 0.55 0.0 0 1 960.01 285.69
  L 960.01 348.64
  A 0.49 0.49 0.0 0 1 959.52 349.13
  L 917.92 349.13
  A 0.60 0.59 0.0 0 0 917.32 349.72
  L 917.32 369.86
  A 0.66 0.66 0.0 0 0 917.98 370.52
  L 980.73 370.52
  A 0.60 0.60 0.0 0 0 981.33 369.92
  L 981.34 264.44
  A 0.55 0.55 0.0 0 0 980.79 263.89
  L 832.60 263.89
  A 0.55 0.54 -89.8 0 0 832.05 264.43
  Q 832.02 274.27 832.01 338.45
  Z"
/>
<path fill="#cc5d28" d="
  M 0.00 285.19
  L 0.00 263.87
  L 127.43 263.87
  A 0.56 0.56 0.0 0 1 127.99 264.43
  L 127.99 369.85
  A 0.64 0.64 0.0 0 1 127.35 370.49
  L 64.58 370.49
  A 0.50 0.50 0.0 0 1 64.08 369.99
  L 64.08 349.44
  A 0.32 0.32 0.0 0 1 64.40 349.12
  L 106.03 349.12
  A 0.60 0.60 0.0 0 0 106.63 348.52
  L 106.63 285.47
  A 0.31 0.31 0.0 0 0 106.32 285.16
  L 0.00 285.19
  Z"
/>
<path fill="#cc5d28" d="
  M 149.32 338.45
  Q 149.32 274.29 149.36 264.46
  A 0.55 0.54 -89.8 0 1 149.90 263.91
  L 298.03 263.91
  A 0.55 0.55 0.0 0 1 298.58 264.46
  L 298.58 369.90
  A 0.60 0.60 0.0 0 1 297.98 370.50
  L 235.25 370.50
  A 0.66 0.66 0.0 0 1 234.59 369.84
  L 234.59 349.71
  A 0.60 0.59 -0.0 0 1 235.19 349.12
  L 276.77 349.12
  A 0.49 0.49 0.0 0 0 277.26 348.63
  L 277.26 285.70
  A 0.55 0.55 0.0 0 0 276.71 285.15
  L 170.99 285.15
  A 0.36 0.36 0.0 0 0 170.64 285.51
  Q 170.63 286.14 170.63 338.50
  Q 170.62 402.65 170.59 412.49
  A 0.55 0.54 -89.8 0 1 170.04 413.03
  L 21.91 413.03
  A 0.55 0.55 0.0 0 1 21.36 412.48
  L 21.36 307.05
  A 0.60 0.60 0.0 0 1 21.96 306.45
  L 84.69 306.45
  A 0.66 0.66 0.0 0 1 85.35 307.10
  L 85.35 327.24
  A 0.60 0.59 -0.0 0 1 84.75 327.82
  L 43.17 327.83
  A 0.49 0.49 0.0 0 0 42.68 328.32
  L 42.68 391.24
  A 0.55 0.55 0.0 0 0 43.23 391.79
  L 148.95 391.79
  A 0.36 0.36 0.0 0 0 149.31 391.43
  Q 149.31 390.81 149.32 338.45
  Z"
/>
<path fill="#cc5d28" d="
  M 320.04 338.45
  Q 320.04 274.27 320.08 264.43
  A 0.55 0.54 -89.8 0 1 320.62 263.89
  L 468.81 263.89
  A 0.55 0.55 0.0 0 1 469.36 264.44
  L 469.36 369.92
  A 0.60 0.60 0.0 0 1 468.76 370.52
  L 406.00 370.52
  A 0.66 0.66 0.0 0 1 405.34 369.86
  L 405.34 349.72
  A 0.60 0.59 -0.0 0 1 405.94 349.13
  L 447.54 349.13
  A 0.49 0.49 0.0 0 0 448.03 348.64
  L 448.03 285.68
  A 0.55 0.55 0.0 0 0 447.48 285.13
  L 341.72 285.14
  A 0.36 0.36 0.0 0 0 341.36 285.50
  Q 341.36 286.12 341.36 338.50
  Q 341.35 402.68 341.31 412.52
  A 0.55 0.54 -89.8 0 1 340.77 413.06
  L 192.58 413.07
  A 0.55 0.55 0.0 0 1 192.03 412.52
  L 192.03 307.04
  A 0.60 0.60 0.0 0 1 192.63 306.44
  L 255.39 306.44
  A 0.66 0.66 0.0 0 1 256.05 307.10
  L 256.05 327.23
  A 0.60 0.59 -0.0 0 1 255.45 327.82
  L 213.85 327.82
  A 0.49 0.49 0.0 0 0 213.36 328.31
  L 213.36 391.27
  A 0.55 0.55 0.0 0 0 213.91 391.82
  L 319.67 391.82
  A 0.36 0.36 0.0 0 0 320.03 391.46
  Q 320.03 390.83 320.04 338.45
  Z"
/>
<path fill="#cc5d28" d="
  M 512.00 338.50
  Q 511.99 402.69 511.95 412.53
  A 0.55 0.54 -89.8 0 1 511.41 413.07
  L 363.21 413.07
  A 0.55 0.55 0.0 0 1 362.66 412.52
  L 362.66 307.03
  A 0.60 0.60 0.0 0 1 363.26 306.43
  L 426.02 306.43
  A 0.66 0.66 0.0 0 1 426.68 307.09
  L 426.68 327.23
  A 0.60 0.59 -0.0 0 1 426.08 327.82
  L 384.48 327.82
  A 0.49 0.49 0.0 0 0 383.99 328.31
  L 383.99 391.27
  A 0.55 0.55 0.0 0 0 384.54 391.82
  L 490.31 391.82
  A 0.36 0.36 0.0 0 0 490.67 391.46
  Q 490.67 390.83 490.68 338.45
  Q 490.68 274.26 490.72 264.42
  A 0.55 0.54 -89.8 0 1 491.26 263.88
  L 639.46 263.88
  A 0.55 0.55 0.0 0 1 640.01 264.43
  L 640.01 369.92
  A 0.60 0.60 0.0 0 1 639.41 370.52
  L 576.65 370.52
  A 0.66 0.66 0.0 0 1 575.99 369.86
  L 575.99 349.72
  A 0.60 0.59 -0.0 0 1 576.59 349.13
  L 618.19 349.13
  A 0.49 0.49 0.0 0 0 618.68 348.64
  L 618.68 285.68
  A 0.55 0.55 0.0 0 0 618.13 285.13
  L 512.36 285.13
  A 0.36 0.36 0.0 0 0 512.00 285.49
  Q 512.00 286.12 512.00 338.50
  Z"
/>
<path fill="#cc5d28" d="
  M 661.30 338.44
  Q 661.30 274.28 661.34 264.45
  A 0.55 0.54 -89.8 0 1 661.88 263.90
  L 810.03 263.91
  A 0.55 0.55 0.0 0 1 810.58 264.46
  L 810.58 369.91
  A 0.60 0.60 0.0 0 1 809.98 370.51
  L 747.24 370.51
  A 0.66 0.66 0.0 0 1 746.58 369.85
  L 746.58 349.71
  A 0.60 0.59 0.0 0 1 747.18 349.12
  L 788.76 349.13
  A 0.49 0.49 0.0 0 0 789.25 348.64
  L 789.26 285.70
  A 0.55 0.55 0.0 0 0 788.71 285.15
  L 682.98 285.15
  A 0.36 0.36 0.0 0 0 682.62 285.51
  Q 682.62 286.13 682.61 338.50
  Q 682.60 402.66 682.56 412.50
  A 0.55 0.54 -89.8 0 1 682.02 413.04
  L 533.87 413.03
  A 0.55 0.55 0.0 0 1 533.32 412.48
  L 533.33 307.03
  A 0.60 0.60 0.0 0 1 533.93 306.43
  L 596.66 306.43
  A 0.66 0.66 0.0 0 1 597.32 307.09
  L 597.32 327.23
  A 0.60 0.59 0.0 0 1 596.72 327.82
  L 555.14 327.81
  A 0.49 0.49 0.0 0 0 554.65 328.30
  L 554.65 391.24
  A 0.55 0.55 0.0 0 0 555.20 391.79
  L 660.93 391.80
  A 0.36 0.36 0.0 0 0 661.29 391.44
  Q 661.29 390.81 661.30 338.44
  Z"
/>
<path fill="#cc5d28" d="
  M 832.01 338.45
  Q 832.02 274.27 832.05 264.43
  A 0.55 0.54 -89.8 0 1 832.60 263.89
  L 980.79 263.89
  A 0.55 0.55 0.0 0 1 981.34 264.44
  L 981.33 369.92
  A 0.60 0.60 0.0 0 1 980.73 370.52
  L 917.98 370.52
  A 0.66 0.66 0.0 0 1 917.32 369.86
  L 917.32 349.72
  A 0.60 0.59 0.0 0 1 917.92 349.13
  L 959.52 349.13
  A 0.49 0.49 0.0 0 0 960.01 348.64
  L 960.01 285.69
  A 0.55 0.55 0.0 0 0 959.46 285.14
  L 853.69 285.13
  A 0.36 0.36 0.0 0 0 853.34 285.50
  Q 853.33 286.12 853.33 338.50
  Q 853.32 402.68 853.28 412.52
  A 0.55 0.54 -89.8 0 1 852.74 413.07
  L 704.55 413.06
  A 0.55 0.55 0.0 0 1 704.00 412.51
  L 704.00 307.03
  A 0.60 0.60 0.0 0 1 704.60 306.43
  L 767.36 306.43
  A 0.66 0.66 0.0 0 1 768.02 307.09
  L 768.02 327.23
  A 0.60 0.59 0.0 0 1 767.42 327.82
  L 725.82 327.82
  A 0.49 0.49 0.0 0 0 725.33 328.31
  L 725.33 391.27
  A 0.55 0.55 0.0 0 0 725.88 391.82
  L 831.64 391.82
  A 0.36 0.36 0.0 0 0 832.00 391.46
  Q 832.00 390.83 832.01 338.45
  Z"
/>
<path fill="#cc5d28" d="
  M 1024.00 263.81
  L 1024.00 413.08
  L 875.05 413.09
  A 0.39 0.38 0.0 0 1 874.66 412.71
  L 874.66 306.84
  A 0.42 0.41 0.0 0 1 875.08 306.43
  L 937.89 306.43
  A 0.70 0.70 0.0 0 1 938.59 307.13
  L 938.59 327.11
  A 0.68 0.68 0.0 0 1 937.91 327.79
  L 896.36 327.79
  A 0.44 0.44 0.0 0 0 895.92 328.23
  L 895.92 391.09
  A 0.75 0.75 0.0 0 0 896.67 391.84
  L 1002.22 391.84
  A 0.41 0.41 0.0 0 0 1002.63 391.43
  L 1002.63 264.20
  A 0.38 0.37 -0.0 0 1 1003.01 263.83
  L 1024.00 263.81
  Z"
/>
<path fill="#cc5d28" d="
  M 1024.00 434.35
  L 1024.00 454.00
  L 0.00 454.00
  L 0.00 434.35
  L 1024.00 434.35
  Z"
/>
</svg>
